<svg xmlns="http://www.w3.org/2000/svg" xmlns:xlink="http://www.w3.org/1999/xlink" width="100" zoomAndPan="magnify" viewBox="0 0 75 74.999997" height="100" preserveAspectRatio="xMidYMid meet" version="1.0"><defs><clipPath id="a882a68900"><path d="M 1.535156 22 L 73.535156 22 L 73.535156 72.246094 L 1.535156 72.246094 Z M 1.535156 22 " clip-rule="nonzero"/></clipPath><clipPath id="cdb4c3cbf2"><path d="M 52 2.496094 L 71 2.496094 L 71 20 L 52 20 Z M 52 2.496094 " clip-rule="nonzero"/></clipPath></defs><rect x="-7.5" width="90" fill="#ffffff" y="-7.5" height="89.999996" fill-opacity="1"/><rect x="-7.5" width="90" fill="#ffffff" y="-7.5" height="89.999996" fill-opacity="1"/><rect x="-7.5" width="90" fill="#a6b1e1" y="-7.5" height="89.999996" fill-opacity="1"/><g clip-path="url(#a882a68900)"><path fill="#3f407e" d="M 62.816406 51.214844 C 63.128906 49.746094 63.316406 48.230469 63.371094 46.6875 C 63.492188 46.589844 63.613281 46.492188 63.734375 46.398438 C 74.800781 37.535156 78 27.242188 65.421875 22.558594 C 69.644531 27.324219 68.09375 32.890625 62.847656 38.234375 C 62.703125 38.382812 62.554688 38.53125 62.402344 38.679688 C 53.136719 47.738281 33.359375 56.058594 13.308594 58.59375 C 13.175781 58.613281 13.039062 58.628906 12.902344 58.644531 C 9.097656 59.113281 5.285156 59.371094 1.535156 59.382812 C 5.917969 60.683594 10.414062 61.410156 14.910156 61.652344 C 15.03125 61.648438 15.148438 61.644531 15.269531 61.636719 C 15.3125 61.636719 15.355469 61.636719 15.398438 61.632812 C 18.484375 65.746094 22.738281 68.933594 27.671875 70.710938 C 25.546875 68.269531 23.757812 64.988281 22.445312 61.136719 C 23.40625 61.039062 24.367188 60.933594 25.328125 60.820312 C 27.40625 66.75 30.671875 70.976562 34.464844 72.1875 C 34.726562 72.207031 34.988281 72.226562 35.25 72.238281 L 35.25 59.277344 C 36.222656 59.09375 37.191406 58.902344 38.164062 58.699219 L 38.164062 72.238281 C 38.425781 72.222656 38.6875 72.207031 38.949219 72.1875 C 43.632812 70.691406 47.519531 64.597656 49.339844 56.375 C 47.101562 56.945312 44.738281 57.425781 42.253906 57.804688 C 42.121094 57.824219 41.984375 57.84375 41.847656 57.863281 C 45.832031 56.554688 49.601562 54.96875 53.0625 53.199219 L 62.316406 53.199219 C 62.511719 52.546875 62.675781 51.886719 62.816406 51.21875 Z M 62.816406 51.214844 " fill-opacity="1" fill-rule="evenodd"/></g><path fill="#3f407e" d="M 38.265625 23.945312 L 35.304688 28.046875 C 39.945312 28.125 43.359375 28.902344 38.226562 34.585938 C 47.386719 26.550781 45.371094 24.003906 38.269531 23.945312 Z M 38.265625 23.945312 " fill-opacity="1" fill-rule="evenodd"/><path fill="#3f407e" d="M 34.234375 10.1875 C 34.234375 12.125 35.808594 13.691406 37.753906 13.691406 C 39.695312 13.691406 41.273438 12.125 41.273438 10.1875 C 41.273438 8.253906 39.695312 6.6875 37.753906 6.6875 C 35.8125 6.6875 34.234375 8.253906 34.234375 10.1875 Z M 34.234375 10.1875 " fill-opacity="1" fill-rule="evenodd"/><path fill="#3f407e" d="M 31.703125 18.253906 C 29.332031 27.890625 24.652344 36.3125 18.390625 43.898438 C 27.175781 37.820312 34.386719 29.882812 39.507812 19.476562 C 45.070312 20.25 50.832031 20.1875 55.824219 15.019531 C 44.148438 22.996094 26.886719 6.359375 21.308594 21.257812 C 24.042969 18.113281 27.664062 17.804688 31.699219 18.257812 Z M 31.703125 18.253906 " fill-opacity="1" fill-rule="evenodd"/><g clip-path="url(#cdb4c3cbf2)"><path fill="#3f407e" d="M 61.261719 2.503906 L 62.859375 8.230469 L 68.355469 5.902344 L 64.847656 10.714844 L 70.105469 13.539062 L 64.136719 13.808594 L 65.199219 19.660156 L 61.261719 15.1875 L 57.328125 19.660156 L 58.390625 13.808594 L 52.421875 13.539062 L 57.679688 10.714844 L 54.175781 5.902344 L 59.667969 8.230469 Z M 61.261719 2.503906 " fill-opacity="1" fill-rule="evenodd"/></g><path fill="#ffffff" d="M 23.253906 55.578125 L 23.253906 47.234375 L 15.734375 47.234375 L 15.734375 56.980469 C 16.066406 56.929688 16.398438 56.878906 16.730469 56.824219 C 18.902344 56.476562 21.082031 56.058594 23.253906 55.578125 Z M 50.160156 31.417969 L 50.160156 45.796875 C 52.773438 44.382812 55.34375 42.792969 57.675781 41.039062 L 57.675781 31.417969 Z M 38.683594 35.003906 L 38.683594 50.992188 C 40.121094 50.449219 41.539062 49.875 42.9375 49.273438 C 44.007812 48.816406 45.097656 48.324219 46.199219 47.800781 L 46.199219 35.003906 Z M 27.210938 41.664062 L 27.210938 54.625 C 29.742188 53.972656 32.253906 53.226562 34.726562 52.398438 L 34.726562 41.664062 Z M 27.210938 41.664062 " fill-opacity="1" fill-rule="evenodd"/><path fill="#3f407e" d="M 52.316406 56.179688 C 51.054688 62.191406 48.722656 67.277344 45.738281 70.710938 L 45.851562 70.671875 C 52.746094 68.152344 58.300781 62.875 61.164062 56.179688 Z M 52.316406 56.179688 " fill-opacity="1" fill-rule="evenodd"/></svg>