<svg xmlns="http://www.w3.org/2000/svg" xmlns:xlink="http://www.w3.org/1999/xlink" width="200" zoomAndPan="magnify" viewBox="0 0 150 37.5" height="50" preserveAspectRatio="xMidYMid meet" version="1.0"><defs><g/><clipPath id="526be6ebdb"><path d="M 1.367188 11 L 38.375 11 L 38.375 36.9375 L 1.367188 36.9375 Z M 1.367188 11 " clip-rule="nonzero"/></clipPath><clipPath id="8025206c3c"><path d="M 27 0.671875 L 37 0.671875 L 37 10 L 27 10 Z M 27 0.671875 " clip-rule="nonzero"/></clipPath><clipPath id="f3b226c256"><path d="M 24 28 L 33 28 L 33 36.9375 L 24 36.9375 Z M 24 28 " clip-rule="nonzero"/></clipPath></defs><g clip-path="url(#526be6ebdb)"><path fill="#3f407e" d="M 32.863281 26.003906 C 33.023438 25.238281 33.117188 24.453125 33.148438 23.648438 C 33.210938 23.597656 33.273438 23.546875 33.335938 23.5 C 39.019531 18.890625 40.664062 13.535156 34.203125 11.101562 C 36.371094 13.582031 35.574219 16.476562 32.878906 19.253906 C 32.804688 19.332031 32.726562 19.40625 32.648438 19.484375 C 27.886719 24.195312 17.726562 28.523438 7.421875 29.84375 C 7.351562 29.851562 7.285156 29.859375 7.214844 29.867188 C 5.257812 30.109375 3.300781 30.246094 1.371094 30.25 C 3.625 30.925781 5.933594 31.304688 8.246094 31.433594 C 8.308594 31.429688 8.367188 31.425781 8.429688 31.425781 C 8.453125 31.421875 8.472656 31.421875 8.496094 31.421875 C 10.082031 33.558594 12.269531 35.21875 14.804688 36.144531 C 13.710938 34.871094 12.792969 33.167969 12.117188 31.164062 C 12.609375 31.113281 13.105469 31.058594 13.597656 31 C 14.664062 34.082031 16.34375 36.28125 18.292969 36.910156 C 18.429688 36.921875 18.5625 36.929688 18.699219 36.9375 L 18.699219 30.199219 C 19.195312 30.101562 19.695312 30.003906 20.195312 29.898438 L 20.195312 36.9375 C 20.328125 36.929688 20.464844 36.921875 20.597656 36.910156 C 23.003906 36.132812 25.003906 32.964844 25.9375 28.6875 C 24.789062 28.984375 23.574219 29.234375 22.296875 29.429688 C 22.226562 29.441406 22.15625 29.453125 22.085938 29.460938 C 24.132812 28.78125 26.074219 27.957031 27.851562 27.035156 L 32.605469 27.035156 C 32.707031 26.699219 32.789062 26.351562 32.863281 26.003906 Z M 32.863281 26.003906 " fill-opacity="1" fill-rule="evenodd"/></g><path fill="#3f407e" d="M 20.246094 11.824219 L 18.726562 13.957031 C 21.109375 13.996094 22.863281 14.402344 20.226562 17.355469 C 24.933594 13.175781 23.898438 11.851562 20.25 11.824219 Z M 20.246094 11.824219 " fill-opacity="1" fill-rule="evenodd"/><path fill="#3f407e" d="M 18.175781 4.667969 C 18.175781 5.675781 18.984375 6.492188 19.984375 6.492188 C 20.980469 6.492188 21.792969 5.675781 21.792969 4.667969 C 21.792969 3.664062 20.980469 2.847656 19.984375 2.847656 C 18.984375 2.847656 18.175781 3.664062 18.175781 4.667969 Z M 18.175781 4.667969 " fill-opacity="1" fill-rule="evenodd"/><path fill="#3f407e" d="M 16.875 8.863281 C 15.65625 13.875 13.25 18.253906 10.035156 22.199219 C 14.546875 19.039062 18.253906 14.910156 20.886719 9.5 C 23.742188 9.898438 26.703125 9.867188 29.269531 7.179688 C 23.269531 11.328125 14.402344 2.675781 11.535156 10.425781 C 12.9375 8.789062 14.800781 8.628906 16.871094 8.863281 Z M 16.875 8.863281 " fill-opacity="1" fill-rule="evenodd"/><g clip-path="url(#8025206c3c)"><path fill="#3f407e" d="M 32.066406 0.671875 L 32.886719 3.648438 L 35.710938 2.4375 L 33.90625 4.941406 L 36.609375 6.410156 L 33.542969 6.550781 L 34.085938 9.59375 L 32.066406 7.269531 L 30.042969 9.59375 L 30.585938 6.550781 L 27.519531 6.410156 L 30.222656 4.941406 L 28.421875 2.4375 L 31.246094 3.648438 Z M 32.066406 0.671875 " fill-opacity="1" fill-rule="evenodd"/></g><path fill="#ffffff" d="M 12.53125 28.273438 L 12.53125 23.933594 L 8.667969 23.933594 L 8.667969 29.003906 C 8.839844 28.976562 9.007812 28.949219 9.179688 28.921875 C 10.296875 28.738281 11.417969 28.523438 12.53125 28.273438 Z M 26.359375 15.707031 L 26.359375 23.1875 C 27.703125 22.449219 29.023438 21.625 30.222656 20.710938 L 30.222656 15.707031 Z M 20.460938 17.574219 L 20.460938 25.886719 C 21.199219 25.605469 21.929688 25.308594 22.648438 24.996094 C 23.199219 24.757812 23.757812 24.5 24.324219 24.230469 L 24.324219 17.574219 Z M 14.566406 21.035156 L 14.566406 27.777344 C 15.867188 27.4375 17.15625 27.050781 18.429688 26.621094 L 18.429688 21.035156 Z M 14.566406 21.035156 " fill-opacity="1" fill-rule="evenodd"/><g clip-path="url(#f3b226c256)"><path fill="#3f407e" d="M 27.46875 28.585938 C 26.820312 31.710938 25.621094 34.355469 24.085938 36.144531 L 24.144531 36.121094 C 27.6875 34.8125 30.542969 32.070312 32.011719 28.585938 Z M 27.46875 28.585938 " fill-opacity="1" fill-rule="evenodd"/></g><g fill="#ffffff" fill-opacity="1"><g transform="translate(40.167122, 22.698804)"><g><path d="M 0.609375 -0.765625 C 1.023438 -0.847656 1.300781 -0.96875 1.4375 -1.125 C 1.570312 -1.28125 1.640625 -1.550781 1.640625 -1.9375 L 1.640625 -7.34375 C 1.640625 -7.625 1.609375 -7.8125 1.546875 -7.90625 C 1.484375 -8.007812 1.347656 -8.0625 1.140625 -8.0625 L 0.65625 -8.046875 L 0.59375 -8.15625 L 0.703125 -8.96875 L 2.625 -8.953125 C 2.925781 -8.953125 3.578125 -8.988281 4.578125 -9.0625 L 4.5 -8.140625 C 4.15625 -8.085938 3.921875 -8.007812 3.796875 -7.90625 C 3.679688 -7.8125 3.613281 -7.632812 3.59375 -7.375 C 3.476562 -5.1875 3.421875 -3.34375 3.421875 -1.84375 C 3.421875 -1.457031 3.457031 -1.195312 3.53125 -1.0625 C 3.601562 -0.9375 3.75 -0.875 3.96875 -0.875 C 4.0625 -0.875 4.265625 -0.890625 4.578125 -0.921875 L 4.625 -0.84375 L 4.5 0.046875 L 4 0.03125 L 2.453125 0 C 2.023438 0 1.382812 0.0390625 0.53125 0.125 Z M 0.609375 -0.765625 "/></g></g></g><g fill="#ffffff" fill-opacity="1"><g transform="translate(45.261538, 22.698804)"><g><path d="M 4.453125 -0.75 C 4.679688 -0.800781 4.84375 -0.882812 4.9375 -1 C 5.039062 -1.125 5.097656 -1.300781 5.109375 -1.53125 L 5.15625 -3.953125 C 5.15625 -4.359375 5.078125 -4.660156 4.921875 -4.859375 C 4.773438 -5.054688 4.546875 -5.15625 4.234375 -5.15625 C 3.890625 -5.15625 3.484375 -4.976562 3.015625 -4.625 C 2.921875 -2.957031 2.875 -1.914062 2.875 -1.5 C 2.875 -1.257812 2.90625 -1.09375 2.96875 -1 C 3.03125 -0.90625 3.140625 -0.859375 3.296875 -0.859375 L 3.671875 -0.875 L 3.703125 -0.828125 L 3.5625 0.046875 C 3.457031 0.0351562 3.257812 0.0234375 2.96875 0.015625 C 2.6875 0.00390625 2.394531 0 2.09375 0 C 1.789062 0 1.460938 0.0078125 1.109375 0.03125 C 0.765625 0.0507812 0.546875 0.0664062 0.453125 0.078125 L 0.5625 -0.78125 C 0.832031 -0.8125 1.019531 -0.882812 1.125 -1 C 1.226562 -1.113281 1.28125 -1.300781 1.28125 -1.5625 L 1.28125 -4.515625 C 1.28125 -4.847656 1.226562 -5.070312 1.125 -5.1875 C 1.03125 -5.300781 0.851562 -5.359375 0.59375 -5.359375 L 0.421875 -5.359375 L 0.359375 -5.421875 L 0.4375 -6.15625 C 0.96875 -6.226562 1.488281 -6.316406 2 -6.421875 C 2.519531 -6.523438 2.851562 -6.585938 3 -6.609375 L 3.109375 -6.46875 C 3.085938 -6.414062 3.054688 -6.289062 3.015625 -6.09375 C 2.984375 -5.894531 2.960938 -5.703125 2.953125 -5.515625 L 3.015625 -5.453125 C 3.304688 -5.703125 3.640625 -5.953125 4.015625 -6.203125 C 4.390625 -6.460938 4.660156 -6.59375 4.828125 -6.59375 C 5.484375 -6.59375 5.992188 -6.4375 6.359375 -6.125 C 6.734375 -5.8125 6.921875 -5.367188 6.921875 -4.796875 C 6.921875 -4.660156 6.882812 -4.171875 6.8125 -3.328125 C 6.71875 -2.378906 6.671875 -1.769531 6.671875 -1.5 C 6.671875 -1.257812 6.703125 -1.085938 6.765625 -0.984375 C 6.835938 -0.890625 6.953125 -0.84375 7.109375 -0.84375 C 7.191406 -0.84375 7.273438 -0.84375 7.359375 -0.84375 C 7.453125 -0.851562 7.507812 -0.859375 7.53125 -0.859375 L 7.5625 -0.8125 L 7.4375 0.046875 C 7.320312 0.0351562 7.117188 0.0234375 6.828125 0.015625 C 6.535156 0.00390625 6.238281 0 5.9375 0 C 5.707031 0 5.414062 0.015625 5.0625 0.046875 C 4.71875 0.078125 4.488281 0.0976562 4.375 0.109375 Z M 4.453125 -0.75 "/></g></g></g><g fill="#ffffff" fill-opacity="1"><g transform="translate(53.105535, 22.698804)"><g><path d="M 2.875 0.171875 C 2.21875 0.171875 1.734375 0.0351562 1.421875 -0.234375 C 1.117188 -0.515625 0.96875 -0.953125 0.96875 -1.546875 L 0.96875 -4.65625 C 0.96875 -4.957031 0.914062 -5.15625 0.8125 -5.25 C 0.707031 -5.351562 0.503906 -5.40625 0.203125 -5.40625 L 0.0625 -5.515625 L 0.171875 -6.1875 C 0.523438 -6.363281 0.875 -6.5625 1.21875 -6.78125 C 1.5625 -7 1.84375 -7.191406 2.0625 -7.359375 C 2.289062 -7.523438 2.4375 -7.628906 2.5 -7.671875 L 2.890625 -7.484375 C 2.878906 -7.421875 2.859375 -7.28125 2.828125 -7.0625 C 2.796875 -6.851562 2.765625 -6.59375 2.734375 -6.28125 L 4.375 -6.328125 L 4.4375 -6.25 L 4.296875 -5.3125 L 2.65625 -5.359375 C 2.59375 -4.546875 2.5625 -3.53125 2.5625 -2.3125 C 2.5625 -1.914062 2.628906 -1.628906 2.765625 -1.453125 C 2.910156 -1.273438 3.140625 -1.1875 3.453125 -1.1875 C 3.628906 -1.1875 3.800781 -1.210938 3.96875 -1.265625 C 4.144531 -1.328125 4.253906 -1.363281 4.296875 -1.375 L 4.484375 -0.9375 C 4.421875 -0.875 4.285156 -0.753906 4.078125 -0.578125 C 3.867188 -0.410156 3.644531 -0.242188 3.40625 -0.078125 C 3.175781 0.0859375 3 0.171875 2.875 0.171875 Z M 2.875 0.171875 "/></g></g></g><g fill="#ffffff" fill-opacity="1"><g transform="translate(57.739355, 22.698804)"><g><path d="M 3.515625 0.171875 C 2.535156 0.171875 1.765625 -0.113281 1.203125 -0.6875 C 0.640625 -1.257812 0.359375 -2.046875 0.359375 -3.046875 C 0.359375 -3.710938 0.503906 -4.316406 0.796875 -4.859375 C 1.085938 -5.398438 1.484375 -5.820312 1.984375 -6.125 C 2.484375 -6.4375 3.039062 -6.59375 3.65625 -6.59375 C 5.21875 -6.59375 6 -5.804688 6 -4.234375 C 6 -3.953125 5.96875 -3.691406 5.90625 -3.453125 L 5.734375 -3.28125 L 2.125 -3.28125 C 2.132812 -2.601562 2.289062 -2.082031 2.59375 -1.71875 C 2.90625 -1.363281 3.34375 -1.1875 3.90625 -1.1875 C 4.382812 -1.1875 4.9375 -1.328125 5.5625 -1.609375 L 5.671875 -1.546875 L 5.890625 -0.859375 C 5.546875 -0.597656 5.144531 -0.359375 4.6875 -0.140625 C 4.238281 0.0664062 3.847656 0.171875 3.515625 0.171875 Z M 4.03125 -4.15625 C 4.144531 -4.164062 4.21875 -4.1875 4.25 -4.21875 C 4.28125 -4.257812 4.296875 -4.347656 4.296875 -4.484375 C 4.296875 -5.171875 4.003906 -5.515625 3.421875 -5.515625 C 3.054688 -5.515625 2.757812 -5.390625 2.53125 -5.140625 C 2.300781 -4.890625 2.164062 -4.523438 2.125 -4.046875 Z M 4.03125 -4.15625 "/></g></g></g><g fill="#ffffff" fill-opacity="1"><g transform="translate(64.187634, 22.698804)"><g><path d="M 0.609375 -0.796875 C 0.890625 -0.816406 1.078125 -0.890625 1.171875 -1.015625 C 1.273438 -1.148438 1.328125 -1.398438 1.328125 -1.765625 L 1.328125 -4.53125 C 1.328125 -4.851562 1.285156 -5.070312 1.203125 -5.1875 C 1.117188 -5.300781 0.957031 -5.359375 0.71875 -5.359375 L 0.453125 -5.34375 L 0.390625 -5.4375 L 0.46875 -6.140625 C 0.96875 -6.222656 1.472656 -6.316406 1.984375 -6.421875 C 2.503906 -6.523438 2.835938 -6.585938 2.984375 -6.609375 L 3.109375 -6.484375 C 3.085938 -6.398438 3.0625 -6.222656 3.03125 -5.953125 C 3 -5.679688 2.976562 -5.421875 2.96875 -5.171875 L 3.0625 -5.125 C 3.34375 -5.5625 3.65625 -5.898438 4 -6.140625 C 4.351562 -6.378906 4.691406 -6.5 5.015625 -6.5 C 5.140625 -6.5 5.242188 -6.492188 5.328125 -6.484375 C 5.410156 -6.472656 5.46875 -6.460938 5.5 -6.453125 L 5.546875 -6.34375 C 5.523438 -6.1875 5.476562 -5.84375 5.40625 -5.3125 C 5.34375 -4.789062 5.300781 -4.296875 5.28125 -3.828125 L 4.375 -3.765625 C 4.375 -4.210938 4.347656 -4.507812 4.296875 -4.65625 C 4.253906 -4.800781 4.148438 -4.875 3.984375 -4.875 C 3.835938 -4.875 3.679688 -4.816406 3.515625 -4.703125 C 3.347656 -4.585938 3.191406 -4.429688 3.046875 -4.234375 C 3.035156 -3.972656 3.015625 -3.546875 2.984375 -2.953125 C 2.953125 -2.367188 2.929688 -1.898438 2.921875 -1.546875 C 2.921875 -1.304688 2.957031 -1.140625 3.03125 -1.046875 C 3.113281 -0.953125 3.253906 -0.90625 3.453125 -0.90625 C 3.597656 -0.90625 3.738281 -0.910156 3.875 -0.921875 C 4.019531 -0.929688 4.113281 -0.941406 4.15625 -0.953125 L 4.203125 -0.859375 L 4.046875 0.0625 C 3.910156 0.0507812 3.664062 0.0351562 3.3125 0.015625 C 2.96875 0.00390625 2.613281 0 2.25 0 C 1.894531 0 1.539062 0.00390625 1.1875 0.015625 C 0.832031 0.0351562 0.601562 0.0507812 0.5 0.0625 Z M 0.609375 -0.796875 "/></g></g></g><g fill="#ffffff" fill-opacity="1"><g transform="translate(69.924085, 22.698804)"><g><path d="M 2.203125 0.203125 C 2.078125 -0.234375 1.835938 -1.082031 1.484375 -2.34375 C 1.128906 -3.613281 0.878906 -4.46875 0.734375 -4.90625 C 0.597656 -5.351562 0.3125 -5.585938 -0.125 -5.609375 L -0.15625 -5.671875 L -0.0625 -6.453125 L 1.25 -6.4375 C 1.632812 -6.4375 2.019531 -6.445312 2.40625 -6.46875 C 2.789062 -6.5 3.039062 -6.519531 3.15625 -6.53125 L 3.1875 -6.453125 L 3.0625 -5.671875 C 2.769531 -5.640625 2.582031 -5.597656 2.5 -5.546875 C 2.414062 -5.503906 2.375 -5.421875 2.375 -5.296875 C 2.375 -5.140625 2.492188 -4.566406 2.734375 -3.578125 C 2.984375 -2.597656 3.15625 -1.929688 3.25 -1.578125 L 3.390625 -1.578125 C 3.847656 -2.828125 4.164062 -3.726562 4.34375 -4.28125 C 4.53125 -4.84375 4.625 -5.1875 4.625 -5.3125 C 4.625 -5.425781 4.59375 -5.5 4.53125 -5.53125 C 4.46875 -5.570312 4.347656 -5.59375 4.171875 -5.59375 L 3.78125 -5.59375 L 3.71875 -5.6875 L 3.828125 -6.453125 L 5.359375 -6.4375 L 6.625 -6.453125 L 6.515625 -5.609375 C 6.304688 -5.578125 6.15625 -5.515625 6.0625 -5.421875 C 5.976562 -5.328125 5.875 -5.113281 5.75 -4.78125 L 3.984375 0 Z M 2.203125 0.203125 "/></g></g></g><g fill="#ffffff" fill-opacity="1"><g transform="translate(76.428188, 22.698804)"><g><path d="M 0.484375 -0.71875 C 0.753906 -0.769531 0.953125 -0.863281 1.078125 -1 C 1.203125 -1.132812 1.265625 -1.332031 1.265625 -1.59375 L 1.265625 -4.609375 C 1.265625 -4.898438 1.222656 -5.101562 1.140625 -5.21875 C 1.054688 -5.332031 0.90625 -5.390625 0.6875 -5.390625 C 0.625 -5.390625 0.554688 -5.382812 0.484375 -5.375 C 0.421875 -5.363281 0.378906 -5.351562 0.359375 -5.34375 L 0.453125 -6.140625 C 0.972656 -6.210938 1.5 -6.296875 2.03125 -6.390625 C 2.570312 -6.492188 2.921875 -6.5625 3.078125 -6.59375 L 3.203125 -6.375 C 3.109375 -6.164062 3.03125 -5.601562 2.96875 -4.6875 C 2.90625 -3.78125 2.875 -2.707031 2.875 -1.46875 C 2.875 -1.238281 2.90625 -1.078125 2.96875 -0.984375 C 3.03125 -0.890625 3.144531 -0.84375 3.3125 -0.84375 C 3.394531 -0.84375 3.472656 -0.847656 3.546875 -0.859375 C 3.628906 -0.867188 3.6875 -0.875 3.71875 -0.875 L 3.75 -0.8125 L 3.609375 0.046875 C 3.503906 0.0351562 3.300781 0.0234375 3 0.015625 C 2.695312 0.00390625 2.390625 0 2.078125 0 C 1.785156 0 1.457031 0.0195312 1.09375 0.0625 C 0.726562 0.101562 0.488281 0.132812 0.375 0.15625 Z M 1.953125 -7.796875 C 1.640625 -7.796875 1.398438 -7.882812 1.234375 -8.0625 C 1.066406 -8.238281 0.984375 -8.476562 0.984375 -8.78125 C 0.984375 -9.113281 1.082031 -9.378906 1.28125 -9.578125 C 1.488281 -9.785156 1.757812 -9.890625 2.09375 -9.890625 C 2.382812 -9.890625 2.613281 -9.796875 2.78125 -9.609375 C 2.945312 -9.429688 3.03125 -9.195312 3.03125 -8.90625 C 3.03125 -8.570312 2.929688 -8.300781 2.734375 -8.09375 C 2.535156 -7.894531 2.273438 -7.796875 1.953125 -7.796875 Z M 1.953125 -7.796875 "/></g></g></g><g fill="#ffffff" fill-opacity="1"><g transform="translate(80.50372, 22.698804)"><g><path d="M 3.515625 0.171875 C 2.535156 0.171875 1.765625 -0.113281 1.203125 -0.6875 C 0.640625 -1.257812 0.359375 -2.046875 0.359375 -3.046875 C 0.359375 -3.710938 0.503906 -4.316406 0.796875 -4.859375 C 1.085938 -5.398438 1.484375 -5.820312 1.984375 -6.125 C 2.484375 -6.4375 3.039062 -6.59375 3.65625 -6.59375 C 5.21875 -6.59375 6 -5.804688 6 -4.234375 C 6 -3.953125 5.96875 -3.691406 5.90625 -3.453125 L 5.734375 -3.28125 L 2.125 -3.28125 C 2.132812 -2.601562 2.289062 -2.082031 2.59375 -1.71875 C 2.90625 -1.363281 3.34375 -1.1875 3.90625 -1.1875 C 4.382812 -1.1875 4.9375 -1.328125 5.5625 -1.609375 L 5.671875 -1.546875 L 5.890625 -0.859375 C 5.546875 -0.597656 5.144531 -0.359375 4.6875 -0.140625 C 4.238281 0.0664062 3.847656 0.171875 3.515625 0.171875 Z M 4.03125 -4.15625 C 4.144531 -4.164062 4.21875 -4.1875 4.25 -4.21875 C 4.28125 -4.257812 4.296875 -4.347656 4.296875 -4.484375 C 4.296875 -5.171875 4.003906 -5.515625 3.421875 -5.515625 C 3.054688 -5.515625 2.757812 -5.390625 2.53125 -5.140625 C 2.300781 -4.890625 2.164062 -4.523438 2.125 -4.046875 Z M 4.03125 -4.15625 "/></g></g></g><g fill="#ffffff" fill-opacity="1"><g transform="translate(86.951999, 22.698804)"><g><path d="M 2.203125 0.203125 C 2.078125 -0.234375 1.84375 -1.082031 1.5 -2.34375 C 1.15625 -3.601562 0.910156 -4.457031 0.765625 -4.90625 C 0.628906 -5.363281 0.347656 -5.597656 -0.078125 -5.609375 L -0.109375 -5.671875 L -0.015625 -6.453125 L 1.265625 -6.4375 C 1.648438 -6.4375 2.03125 -6.445312 2.40625 -6.46875 C 2.789062 -6.5 3.039062 -6.519531 3.15625 -6.53125 L 3.1875 -6.453125 L 3.0625 -5.671875 C 2.78125 -5.640625 2.597656 -5.597656 2.515625 -5.546875 C 2.429688 -5.503906 2.390625 -5.421875 2.390625 -5.296875 C 2.390625 -5.140625 2.507812 -4.566406 2.75 -3.578125 C 2.988281 -2.585938 3.15625 -1.914062 3.25 -1.5625 L 3.390625 -1.5625 C 3.691406 -2.320312 4.070312 -3.46875 4.53125 -5 C 4.476562 -5.21875 4.394531 -5.367188 4.28125 -5.453125 C 4.175781 -5.546875 4 -5.59375 3.75 -5.59375 L 3.71875 -5.671875 L 3.828125 -6.453125 L 5.109375 -6.4375 C 5.484375 -6.4375 5.851562 -6.445312 6.21875 -6.46875 C 6.59375 -6.488281 6.832031 -6.503906 6.9375 -6.515625 L 6.96875 -6.453125 L 6.84375 -5.65625 C 6.5625 -5.625 6.378906 -5.585938 6.296875 -5.546875 C 6.222656 -5.503906 6.1875 -5.421875 6.1875 -5.296875 C 6.1875 -5.140625 6.304688 -4.566406 6.546875 -3.578125 C 6.785156 -2.585938 6.953125 -1.914062 7.046875 -1.5625 L 7.171875 -1.5625 C 7.578125 -2.707031 7.882812 -3.582031 8.09375 -4.1875 C 8.300781 -4.800781 8.40625 -5.175781 8.40625 -5.3125 C 8.40625 -5.425781 8.375 -5.503906 8.3125 -5.546875 C 8.25 -5.585938 8.128906 -5.609375 7.953125 -5.609375 L 7.578125 -5.609375 L 7.515625 -5.6875 L 7.625 -6.453125 C 7.71875 -6.453125 7.90625 -6.445312 8.1875 -6.4375 C 8.46875 -6.4375 8.769531 -6.4375 9.09375 -6.4375 L 10.375 -6.453125 L 10.25 -5.609375 C 10.050781 -5.578125 9.90625 -5.515625 9.8125 -5.421875 C 9.726562 -5.328125 9.625 -5.113281 9.5 -4.78125 L 7.765625 0 L 6.0625 0.203125 C 6.03125 0.015625 5.8125 -0.847656 5.40625 -2.390625 L 5.171875 -3.296875 L 5.015625 -3.296875 L 3.953125 0 Z M 2.203125 0.203125 "/></g></g></g><g fill="#332970" fill-opacity="1"><g transform="translate(97.235659, 22.698804)"><g><path d="M 4.546875 0.171875 C 3.703125 0.171875 2.96875 -0.00390625 2.34375 -0.359375 C 1.71875 -0.710938 1.238281 -1.21875 0.90625 -1.875 C 0.570312 -2.539062 0.40625 -3.328125 0.40625 -4.234375 C 0.40625 -5.210938 0.601562 -6.066406 1 -6.796875 C 1.40625 -7.535156 1.976562 -8.109375 2.71875 -8.515625 C 3.457031 -8.921875 4.3125 -9.125 5.28125 -9.125 C 5.625 -9.125 5.992188 -9.097656 6.390625 -9.046875 C 6.785156 -8.992188 7.125 -8.9375 7.40625 -8.875 C 7.6875 -8.820312 7.863281 -8.789062 7.9375 -8.78125 L 8.015625 -8.59375 C 8.003906 -8.53125 7.972656 -8.378906 7.921875 -8.140625 C 7.878906 -7.910156 7.828125 -7.597656 7.765625 -7.203125 C 7.710938 -6.816406 7.671875 -6.40625 7.640625 -5.96875 L 6.328125 -5.890625 C 6.328125 -5.921875 6.328125 -6.003906 6.328125 -6.140625 C 6.335938 -6.273438 6.34375 -6.429688 6.34375 -6.609375 C 6.34375 -7.023438 6.21875 -7.328125 5.96875 -7.515625 C 5.71875 -7.703125 5.320312 -7.796875 4.78125 -7.796875 C 4.050781 -7.796875 3.492188 -7.535156 3.109375 -7.015625 C 2.722656 -6.492188 2.53125 -5.726562 2.53125 -4.71875 C 2.53125 -3.570312 2.734375 -2.679688 3.140625 -2.046875 C 3.554688 -1.421875 4.140625 -1.109375 4.890625 -1.109375 C 5.398438 -1.109375 5.796875 -1.257812 6.078125 -1.5625 C 6.367188 -1.875 6.570312 -2.375 6.6875 -3.0625 L 8.015625 -3.140625 C 7.992188 -2.984375 7.945312 -2.632812 7.875 -2.09375 C 7.800781 -1.550781 7.757812 -1.039062 7.75 -0.5625 L 7.609375 -0.390625 C 7.609375 -0.378906 7.453125 -0.320312 7.140625 -0.21875 C 6.828125 -0.125 6.441406 -0.0351562 5.984375 0.046875 C 5.535156 0.128906 5.054688 0.171875 4.546875 0.171875 Z M 4.546875 0.171875 "/></g></g></g><g fill="#332970" fill-opacity="1"><g transform="translate(105.833352, 22.698804)"><g><path d="M 3.390625 0.171875 C 2.804688 0.171875 2.289062 0.0390625 1.84375 -0.21875 C 1.394531 -0.488281 1.050781 -0.863281 0.8125 -1.34375 C 0.570312 -1.832031 0.453125 -2.394531 0.453125 -3.03125 C 0.453125 -3.726562 0.59375 -4.34375 0.875 -4.875 C 1.15625 -5.414062 1.546875 -5.835938 2.046875 -6.140625 C 2.554688 -6.441406 3.144531 -6.59375 3.8125 -6.59375 C 4.707031 -6.59375 5.414062 -6.304688 5.9375 -5.734375 C 6.46875 -5.171875 6.734375 -4.398438 6.734375 -3.421875 C 6.734375 -2.722656 6.59375 -2.097656 6.3125 -1.546875 C 6.039062 -1.003906 5.648438 -0.582031 5.140625 -0.28125 C 4.628906 0.0195312 4.046875 0.171875 3.390625 0.171875 Z M 3.671875 -0.875 C 4.066406 -0.875 4.367188 -1.035156 4.578125 -1.359375 C 4.785156 -1.679688 4.890625 -2.15625 4.890625 -2.78125 C 4.890625 -3.65625 4.769531 -4.3125 4.53125 -4.75 C 4.289062 -5.195312 3.941406 -5.421875 3.484375 -5.421875 C 3.085938 -5.421875 2.785156 -5.257812 2.578125 -4.9375 C 2.367188 -4.625 2.265625 -4.15625 2.265625 -3.53125 C 2.265625 -2.65625 2.382812 -1.992188 2.625 -1.546875 C 2.863281 -1.097656 3.210938 -0.875 3.671875 -0.875 Z M 3.671875 -0.875 "/></g></g></g><g fill="#332970" fill-opacity="1"><g transform="translate(113.035314, 22.698804)"><g><path d="M 4.453125 -0.75 C 4.679688 -0.800781 4.84375 -0.882812 4.9375 -1 C 5.039062 -1.125 5.097656 -1.300781 5.109375 -1.53125 L 5.15625 -3.953125 C 5.15625 -4.359375 5.078125 -4.660156 4.921875 -4.859375 C 4.773438 -5.054688 4.546875 -5.15625 4.234375 -5.15625 C 3.890625 -5.15625 3.484375 -4.976562 3.015625 -4.625 C 2.921875 -2.957031 2.875 -1.914062 2.875 -1.5 C 2.875 -1.257812 2.90625 -1.09375 2.96875 -1 C 3.03125 -0.90625 3.140625 -0.859375 3.296875 -0.859375 L 3.671875 -0.875 L 3.703125 -0.828125 L 3.5625 0.046875 C 3.457031 0.0351562 3.257812 0.0234375 2.96875 0.015625 C 2.6875 0.00390625 2.394531 0 2.09375 0 C 1.789062 0 1.460938 0.0078125 1.109375 0.03125 C 0.765625 0.0507812 0.546875 0.0664062 0.453125 0.078125 L 0.5625 -0.78125 C 0.832031 -0.8125 1.019531 -0.882812 1.125 -1 C 1.226562 -1.113281 1.28125 -1.300781 1.28125 -1.5625 L 1.28125 -4.515625 C 1.28125 -4.847656 1.226562 -5.070312 1.125 -5.1875 C 1.03125 -5.300781 0.851562 -5.359375 0.59375 -5.359375 L 0.421875 -5.359375 L 0.359375 -5.421875 L 0.4375 -6.15625 C 0.96875 -6.226562 1.488281 -6.316406 2 -6.421875 C 2.519531 -6.523438 2.851562 -6.585938 3 -6.609375 L 3.109375 -6.46875 C 3.085938 -6.414062 3.054688 -6.289062 3.015625 -6.09375 C 2.984375 -5.894531 2.960938 -5.703125 2.953125 -5.515625 L 3.015625 -5.453125 C 3.304688 -5.703125 3.640625 -5.953125 4.015625 -6.203125 C 4.390625 -6.460938 4.660156 -6.59375 4.828125 -6.59375 C 5.484375 -6.59375 5.992188 -6.4375 6.359375 -6.125 C 6.734375 -5.8125 6.921875 -5.367188 6.921875 -4.796875 C 6.921875 -4.660156 6.882812 -4.171875 6.8125 -3.328125 C 6.71875 -2.378906 6.671875 -1.769531 6.671875 -1.5 C 6.671875 -1.257812 6.703125 -1.085938 6.765625 -0.984375 C 6.835938 -0.890625 6.953125 -0.84375 7.109375 -0.84375 C 7.191406 -0.84375 7.273438 -0.84375 7.359375 -0.84375 C 7.453125 -0.851562 7.507812 -0.859375 7.53125 -0.859375 L 7.5625 -0.8125 L 7.4375 0.046875 C 7.320312 0.0351562 7.117188 0.0234375 6.828125 0.015625 C 6.535156 0.00390625 6.238281 0 5.9375 0 C 5.707031 0 5.414062 0.015625 5.0625 0.046875 C 4.71875 0.078125 4.488281 0.0976562 4.375 0.109375 Z M 4.453125 -0.75 "/></g></g></g><g fill="#332970" fill-opacity="1"><g transform="translate(120.879311, 22.698804)"><g><path d="M 4.453125 -0.75 C 4.679688 -0.800781 4.84375 -0.882812 4.9375 -1 C 5.039062 -1.125 5.097656 -1.300781 5.109375 -1.53125 L 5.15625 -3.953125 C 5.15625 -4.359375 5.078125 -4.660156 4.921875 -4.859375 C 4.773438 -5.054688 4.546875 -5.15625 4.234375 -5.15625 C 3.890625 -5.15625 3.484375 -4.976562 3.015625 -4.625 C 2.921875 -2.957031 2.875 -1.914062 2.875 -1.5 C 2.875 -1.257812 2.90625 -1.09375 2.96875 -1 C 3.03125 -0.90625 3.140625 -0.859375 3.296875 -0.859375 L 3.671875 -0.875 L 3.703125 -0.828125 L 3.5625 0.046875 C 3.457031 0.0351562 3.257812 0.0234375 2.96875 0.015625 C 2.6875 0.00390625 2.394531 0 2.09375 0 C 1.789062 0 1.460938 0.0078125 1.109375 0.03125 C 0.765625 0.0507812 0.546875 0.0664062 0.453125 0.078125 L 0.5625 -0.78125 C 0.832031 -0.8125 1.019531 -0.882812 1.125 -1 C 1.226562 -1.113281 1.28125 -1.300781 1.28125 -1.5625 L 1.28125 -4.515625 C 1.28125 -4.847656 1.226562 -5.070312 1.125 -5.1875 C 1.03125 -5.300781 0.851562 -5.359375 0.59375 -5.359375 L 0.421875 -5.359375 L 0.359375 -5.421875 L 0.4375 -6.15625 C 0.96875 -6.226562 1.488281 -6.316406 2 -6.421875 C 2.519531 -6.523438 2.851562 -6.585938 3 -6.609375 L 3.109375 -6.46875 C 3.085938 -6.414062 3.054688 -6.289062 3.015625 -6.09375 C 2.984375 -5.894531 2.960938 -5.703125 2.953125 -5.515625 L 3.015625 -5.453125 C 3.304688 -5.703125 3.640625 -5.953125 4.015625 -6.203125 C 4.390625 -6.460938 4.660156 -6.59375 4.828125 -6.59375 C 5.484375 -6.59375 5.992188 -6.4375 6.359375 -6.125 C 6.734375 -5.8125 6.921875 -5.367188 6.921875 -4.796875 C 6.921875 -4.660156 6.882812 -4.171875 6.8125 -3.328125 C 6.71875 -2.378906 6.671875 -1.769531 6.671875 -1.5 C 6.671875 -1.257812 6.703125 -1.085938 6.765625 -0.984375 C 6.835938 -0.890625 6.953125 -0.84375 7.109375 -0.84375 C 7.191406 -0.84375 7.273438 -0.84375 7.359375 -0.84375 C 7.453125 -0.851562 7.507812 -0.859375 7.53125 -0.859375 L 7.5625 -0.8125 L 7.4375 0.046875 C 7.320312 0.0351562 7.117188 0.0234375 6.828125 0.015625 C 6.535156 0.00390625 6.238281 0 5.9375 0 C 5.707031 0 5.414062 0.015625 5.0625 0.046875 C 4.71875 0.078125 4.488281 0.0976562 4.375 0.109375 Z M 4.453125 -0.75 "/></g></g></g><g fill="#332970" fill-opacity="1"><g transform="translate(128.723309, 22.698804)"><g><path d="M 3.515625 0.171875 C 2.535156 0.171875 1.765625 -0.113281 1.203125 -0.6875 C 0.640625 -1.257812 0.359375 -2.046875 0.359375 -3.046875 C 0.359375 -3.710938 0.503906 -4.316406 0.796875 -4.859375 C 1.085938 -5.398438 1.484375 -5.820312 1.984375 -6.125 C 2.484375 -6.4375 3.039062 -6.59375 3.65625 -6.59375 C 5.21875 -6.59375 6 -5.804688 6 -4.234375 C 6 -3.953125 5.96875 -3.691406 5.90625 -3.453125 L 5.734375 -3.28125 L 2.125 -3.28125 C 2.132812 -2.601562 2.289062 -2.082031 2.59375 -1.71875 C 2.90625 -1.363281 3.34375 -1.1875 3.90625 -1.1875 C 4.382812 -1.1875 4.9375 -1.328125 5.5625 -1.609375 L 5.671875 -1.546875 L 5.890625 -0.859375 C 5.546875 -0.597656 5.144531 -0.359375 4.6875 -0.140625 C 4.238281 0.0664062 3.847656 0.171875 3.515625 0.171875 Z M 4.03125 -4.15625 C 4.144531 -4.164062 4.21875 -4.1875 4.25 -4.21875 C 4.28125 -4.257812 4.296875 -4.347656 4.296875 -4.484375 C 4.296875 -5.171875 4.003906 -5.515625 3.421875 -5.515625 C 3.054688 -5.515625 2.757812 -5.390625 2.53125 -5.140625 C 2.300781 -4.890625 2.164062 -4.523438 2.125 -4.046875 Z M 4.03125 -4.15625 "/></g></g></g><g fill="#332970" fill-opacity="1"><g transform="translate(135.171588, 22.698804)"><g><path d="M 3.4375 0.171875 C 2.488281 0.171875 1.738281 -0.113281 1.1875 -0.6875 C 0.632812 -1.257812 0.359375 -2.046875 0.359375 -3.046875 C 0.359375 -3.734375 0.503906 -4.34375 0.796875 -4.875 C 1.085938 -5.414062 1.488281 -5.835938 2 -6.140625 C 2.519531 -6.441406 3.101562 -6.59375 3.75 -6.59375 C 4.0625 -6.59375 4.347656 -6.570312 4.609375 -6.53125 C 4.878906 -6.488281 5.085938 -6.445312 5.234375 -6.40625 C 5.390625 -6.363281 5.488281 -6.335938 5.53125 -6.328125 L 5.578125 -6.1875 C 5.566406 -6.132812 5.539062 -6.007812 5.5 -5.8125 C 5.457031 -5.613281 5.410156 -5.351562 5.359375 -5.03125 C 5.316406 -4.71875 5.289062 -4.390625 5.28125 -4.046875 L 4.375 -3.984375 L 4.375 -4.453125 C 4.375 -4.765625 4.296875 -5.003906 4.140625 -5.171875 C 3.992188 -5.347656 3.78125 -5.4375 3.5 -5.4375 C 3.0625 -5.4375 2.726562 -5.273438 2.5 -4.953125 C 2.269531 -4.640625 2.15625 -4.1875 2.15625 -3.59375 C 2.15625 -2.820312 2.289062 -2.234375 2.5625 -1.828125 C 2.832031 -1.421875 3.21875 -1.21875 3.71875 -1.21875 C 3.945312 -1.21875 4.171875 -1.242188 4.390625 -1.296875 C 4.609375 -1.359375 4.789062 -1.421875 4.9375 -1.484375 C 5.082031 -1.554688 5.171875 -1.601562 5.203125 -1.625 L 5.296875 -1.578125 L 5.53125 -0.859375 C 5.457031 -0.804688 5.304688 -0.695312 5.078125 -0.53125 C 4.847656 -0.375 4.578125 -0.21875 4.265625 -0.0625 C 3.960938 0.09375 3.6875 0.171875 3.4375 0.171875 Z M 3.4375 0.171875 "/></g></g></g><g fill="#332970" fill-opacity="1"><g transform="translate(141.187183, 22.698804)"><g><path d="M 2.875 0.171875 C 2.21875 0.171875 1.734375 0.0351562 1.421875 -0.234375 C 1.117188 -0.515625 0.96875 -0.953125 0.96875 -1.546875 L 0.96875 -4.65625 C 0.96875 -4.957031 0.914062 -5.15625 0.8125 -5.25 C 0.707031 -5.351562 0.503906 -5.40625 0.203125 -5.40625 L 0.0625 -5.515625 L 0.171875 -6.1875 C 0.523438 -6.363281 0.875 -6.5625 1.21875 -6.78125 C 1.5625 -7 1.84375 -7.191406 2.0625 -7.359375 C 2.289062 -7.523438 2.4375 -7.628906 2.5 -7.671875 L 2.890625 -7.484375 C 2.878906 -7.421875 2.859375 -7.28125 2.828125 -7.0625 C 2.796875 -6.851562 2.765625 -6.59375 2.734375 -6.28125 L 4.375 -6.328125 L 4.4375 -6.25 L 4.296875 -5.3125 L 2.65625 -5.359375 C 2.59375 -4.546875 2.5625 -3.53125 2.5625 -2.3125 C 2.5625 -1.914062 2.628906 -1.628906 2.765625 -1.453125 C 2.910156 -1.273438 3.140625 -1.1875 3.453125 -1.1875 C 3.628906 -1.1875 3.800781 -1.210938 3.96875 -1.265625 C 4.144531 -1.328125 4.253906 -1.363281 4.296875 -1.375 L 4.484375 -0.9375 C 4.421875 -0.875 4.285156 -0.753906 4.078125 -0.578125 C 3.867188 -0.410156 3.644531 -0.242188 3.40625 -0.078125 C 3.175781 0.0859375 3 0.171875 2.875 0.171875 Z M 2.875 0.171875 "/></g></g></g></svg>